Coordinates
version=1
nRows=5
nColumns=40
inDegrees=yes

Units are S.I. units (second, meters, Newtons, ...)
Angles are in degrees.

endheader
time	pelvis_tilt	pelvis_list	pelvis_rotation	pelvis_tx	pelvis_ty	pelvis_tz	hip_flexion_r	hip_adduction_r	hip_rotation_r	knee_angle_r	knee_angle_r_beta	ankle_angle_r	subtalar_angle_r	mtp_angle_r	hip_flexion_l	hip_adduction_l	hip_rotation_l	knee_angle_l	knee_angle_l_beta	ankle_angle_l	subtalar_angle_l	mtp_angle_l	lumbar_extension	lumbar_bending	lumbar_rotation	arm_flex_r	arm_add_r	arm_rot_r	elbow_flex_r	pro_sup_r	wrist_flex_r	wrist_dev_r	arm_flex_l	arm_add_l	arm_rot_l	elbow_flex_l	pro_sup_l	wrist_flex_l	wrist_dev_l
     57.28500000	     -6.96712409	     -4.37919105	     11.89645948	      0.90739085	      0.91926834	      0.54196259	      8.76131095	      3.85907697	    -16.65421131	     16.96438252	     16.96438252	     17.14481651	     -7.38789957	     -2.37715616	     29.75683228	     -6.45293010	      0.83738208	     12.42516804	     12.42516804	      3.30879536	      1.80040817	      0.08105617	     -8.11232964	      2.90704370	      1.69312741	     59.88204733	    -20.37142734	     -8.90479908	     77.65541192	     44.93903337	      0.00000000	      0.00000000	    -16.24566021	     -7.51817007	     19.30100235	     31.21022397	     43.22160229	      0.00000000	      0.00000000
     57.30321429	     -6.92375744	     -4.48711642	     11.72572034	      0.90807932	      0.91821686	      0.53979481	      8.44259321	      3.90020151	    -16.41977108	     17.29593683	     17.29593683	     17.70206147	     -7.43879160	     -1.97510849	     29.43554090	     -6.49997209	      0.75987222	     12.54766332	     12.54766332	      1.62450500	      0.98689135	     -3.11205966	     -8.01737895	      2.88702124	      1.85734480	     60.30109391	    -20.06350205	     -9.16449503	     78.41820204	     44.95187928	      0.00000000	      0.00000000	    -16.07551854	     -7.45186109	     19.34520172	     31.16738365	     43.32294463	      0.00000000	      0.00000000
     57.32142857	     -6.91199903	     -4.56064633	     11.61586059	      0.90895300	      0.91745393	      0.53738317	      8.02061033	      3.90161301	    -16.27503045	     17.38634429	     17.38634429	     18.01077699	     -7.44154316	     -2.07004823	     29.16305063	     -6.52767132	      0.56976988	     12.89894199	     12.89894199	      1.08494597	      0.82883628	     -3.01139730	     -7.81828779	      2.83264196	      1.89626057	     60.36312392	    -19.90192478	     -9.11609404	     78.50345357	     44.94831585	      0.00000000	      0.00000000	    -15.81408035	     -7.49534931	     19.32793834	     31.22253614	     43.33189196	      0.00000000	      0.00000000
     57.33964286	     -6.72193310	     -4.62379320	     11.40150630	      0.91011636	      0.91671554	      0.53488013	      7.49822636	      3.88710883	    -16.04419885	     17.70884031	     17.70884031	     18.39357032	     -7.37771902	     -1.89201062	     29.12738821	     -6.59611277	      0.64990597	     14.15533261	     14.15533261	      0.43038101	     -0.41380165	     -4.28428857	     -7.87294371	      2.79855419	      1.80689971	     60.27209814	    -19.27360461	     -9.24086573	     79.42209763	     44.93256802	      0.00000000	      0.00000000	    -15.27505149	     -7.46932796	     19.27540868	     31.00036335	     43.39039187	      0.00000000	      0.00000000
     57.35785714	     -6.54322615	     -4.59940920	     11.25768890	      0.91147497	      0.91637385	      0.53196243	      6.85937482	      3.77178597	    -15.86504777	     17.84909789	     17.84909789	     18.74609285	     -7.26087761	     -1.60775277	     28.86184943	     -6.50504921	      0.89435314	     15.01354428	     15.01354428	     -0.27920281	     -1.62918378	     -5.18931076	     -7.83458806	      2.72780270	      1.95459125	     59.64332633	    -19.03085671	     -9.53471142	     80.07350864	     44.93268721	      0.00000000	      0.00000000	    -14.51033148	     -7.50668965	     19.08095980	     30.74467636	     43.48346648	      0.00000000	      0.00000000
